<svg xmlns="http://www.w3.org/2000/svg" width="512" height="512"><path stroke="#000" d="m242.5 5 5.5.5-5.5.5zM264.5 5l6.5.5-6.5.5zM230.5 6l2.5.5-2.5.5zM280.5 6l2.5.5-2.5.5zM235.5 17l2.5.5-2.5.5zM274.5 17l2.5.5-2.5.5zM426.5 17l2.5.5-2.5.5zM437.5 17l2.5.5-2.5.5zM284.5 18l2.5.5-2.5.5zM468.5 28l1 2zM472.5 31l8 9zM414.5 38l-1 2zM452.5 39l6 7zM384.5 40l-1 2zM482.5 42l1 2zM430.5 45l5.5.5-5.5.5zM113.5 49l-1 2zM420.5 49l-3 4zM106.5 54l-1 2zM102.5 57l-1 2zM97.5 61l-1 2zM116.5 61l-1 2zM400.5 62l.5 6.5h-1zM452.5 63l.5 4.5h-1zM91.5 66l-3 4zM108.5 67l-1 2zM103.5 71l-1 2zM242.5 72l-1 2zM269.5 72l1 2zM494.5 72l.5 3.5h-1zM96.5 77l-4 5zM447.5 78l-2 3zM420.5 80l1 2zM273.5 81l.5 3.5h-1zM238.5 82l.5 2.5h-1zM494.5 82l.5 3.5h-1zM408.5 86q4.5 2 1 4zM75.5 89l1 2zM358.5 91l1.5 2.5h-1zM242.5 94l2 3zM269.5 94l-2 3zM429.5 97l7.5.5-7.5.5zM393.5 98l-2 3zM475.5 101l4 5zM384.5 107l-2 3zM464.5 108l2 3zM483.5 110l2.5 1.5-1.5.5zM397.5 111l-2 3zM471.5 115l1 2zM161.5 119l.5 109 24 .5-23.5.5-1.5-1.5zM290.5 119l.5 26.5h-1z" opacity=".824"/><path stroke="#000" d="m350.5 119 .5 108.5-1.5 1.5h-115l-1.5-1.5v-68h1V228h116zM389.5 123l3 4zM471.5 127l-1 2zM395.5 128l1 2zM34.5 143l2.5.5-2.5.5zM179.5 146l61.5.5-61.5.5zM243.5 147l2 3zM33.5 169l-1 2zM34.5 173l2 3zM18.5 226l.5 2.5h-1zM493.5 226l.5 2.5h-1zM6.5 230l.5 2.5H6zM505.5 230l.5 2.5h-1zM17.5 236l.5 3.5h-1zM494.5 236l.5 2.5h-1zM133.5 242l-2 3zM5.5 243l.5 7.5H5zM506.5 243l.5 7.5h-1zM136.5 260l239.5.5-239.5.5zM506.5 261l.5 7.5h-1zM5.5 262l.5 6.5H5zM494.5 272l.5 3.5h-1zM17.5 273l.5 2.5h-1zM6.5 279l.5 2.5H6zM505.5 279l.5 2.5h-1zM18.5 283l.5 2.5h-1zM493.5 283l.5 2.5h-1zM329.5 287l3 4zM475.5 336l2 3zM479.5 341l-1 2zM345.5 348l1 2zM153.5 357l-3 4zM475.5 368l2.5.5-2.5.5zM215.5 378l1 1h79l1.5-.5-1.5 1.5h-79zM167.5 384l1 2zM344.5 384l-1 2zM188.5 385l-2 3zM323.5 385l2 3zM61.5 395l1 2zM64.5 399l1 2zM67.5 403l2 3zM54.5 405l1 2zM57.5 409l1 2zM72.5 409l1 2zM135.5 412l241.5.5-241.5.5zM61.5 414l1 2zM79.5 417l15 16zM66.5 420l3 4zM435.5 421l1 2zM420.5 429l-5 6zM100.5 437l1 2zM410.5 438l-2 3zM87.5 441l4 5zM154.5 441l1 2zM357.5 441l-1 2zM424.5 441l-3 4zM106.5 442l1 2zM404.5 443l-1 2zM110.5 445l1 2zM400.5 446l-1 2zM95.5 448l2 3zM416.5 448l-1 2zM396.5 449l-1 2zM410.5 453l-1 2zM124.5 455l1 2zM105.5 456l1 2zM406.5 456l-1 2zM399.5 461l-1 2zM396.5 463l-1 2zM118.5 465l1 2zM393.5 465l-1 2zM226.5 493l2.5.5-2.5.5zM236.5 494l3.5.5-3.5.5zM273.5 494l3.5.5-3.5.5zM229.5 505l2.5.5-2.5.5zM241.5 506l5.5.5-5.5.5zM265.5 506l4.5.5-4.5.5z" opacity=".824"/><path stroke="#000" d="m236.5 5 5.5.5-5.5.5zM271.5 5l5.5.5-5.5.5zM226.5 6l3.5.5-3.5.5zM283.5 6l2.5.5-2.5.5zM219.5 7l2.5.5-2.5.5zM291.5 7l2.5.5-2.5.5zM212.5 8l2.5.5-2.5.5zM297.5 8l2.5.5-2.5.5zM207.5 9l2.5.5-2.5.5zM238.5 17l7.5.5-7.5.5zM267.5 17l6.5.5-6.5.5zM423.5 17l2.5.5-2.5.5zM440.5 17l2.5.5-2.5.5zM228.5 18l3.5.5-3.5.5zM281.5 18l2.5.5-2.5.5zM221.5 19l2.5.5-2.5.5zM289.5 19l2.5.5-2.5.5zM295.5 20l2.5.5-2.5.5zM209.5 21l2.5.5-2.5.5zM396.5 28l-1 2zM470.5 29l1 2zM392.5 31l-7 8zM372.5 33l1 2zM427.5 33l3.5.5-3.5.5zM434.5 33l3.5.5-3.5.5zM253.5 37l5.5.5-5.5.5zM416.5 37l-1 2zM450.5 38l1 2zM412.5 40l-5 6zM481.5 40l1 2zM123.5 42l-1 2zM458.5 46l1 2zM445.5 49l3 4zM111.5 50l-1 2zM99.5 59l-1 2zM452.5 60l.5 2.5h-1zM464.5 60l.5 9.5h-1zM94.5 63l-2 3zM412.5 64l.5 2.5h-1zM111.5 65l-1 2zM252.5 66l2.5.5-2.5.5zM257.5 66l2.5.5-2.5.5zM371.5 66l.5 2.5h-1zM106.5 69l-1 2zM494.5 69l.5 2.5h-1zM86.5 70l-12 13zM244.5 70l-1 2zM267.5 70l1 2zM401.5 70l.5 2.5h-1zM101.5 73l-3 4zM370.5 73l.5 11.5h-1zM449.5 76l-1 2zM417.5 78l2 3zM91.5 82l-8 9zM406.5 83l1 2zM457.5 85l-2.5 3.5.5 1.5-1.5-1.5zM494.5 86l.5 2.5h-1zM241.5 92l1 2zM401.5 93l-1 2zM395.5 97l-1 2zM425.5 97l3.5.5-3.5.5zM437.5 97l2.5.5-2.5.5zM471.5 98l2 3zM254.5 100l3.5.5-3.5.5zM390.5 101l-5 6zM404.5 105l-1 2zM125.5 106l-2 3zM480.5 107l2 3zM400.5 108l-2 3zM382.5 110l-2 3-1-2q1.5 2.5 3-1ZM468.5 111l1 2zM394.5 114l-2 3zM473.5 117l1 2zM266.5 119l.5 26 23 .5-22.5.5-1.5-1.5zM302.5 119l.5 26 23 .5-22.5.5-1.5-1.5zM476.5 123l-3 4zM393.5 127l1 2zM477.5 138l1 2zM427.5 141l11.5.5-11.5.5zM39.5 144l1 2zM12.5 155l-1 2zM174.5 156l1 2zM43.5 157l.5 2.5h-1zM10.5 158l.5 3.5h-1zM45.5 168l.5 4.5h-1zM33.5 170l.5 2-2-.5zM44.5 174l-1 2zM501.5 202l.5 2.5h-1zM21.5 209l.5 2.5h-1zM7.5 219l.5 2.5H7zM504.5 219l.5 2.5h-1zM19.5 221l.5 2.5h-1zM492.5 221l.5 2.5h-1zM6.5 226l.5 3.5H6zM505.5 227l.5 2.5h-1zM18.5 229l.5 2.5h-1zM493.5 229l.5 2.5h-1zM5.5 237l.5 5.5H5zM506.5 237l.5 5.5h-1zM494.5 239l.5 8.5h-1zM17.5 240l.5 7.5h-1zM137.5 240l237.5.5-237.5.5zM130.5 246l.5 8.5h-1zM381.5 246l.5 9.5h-1zM131.5 257l2 3zM380.5 257l-2 3zM494.5 264l.5 7.5h-1zM17.5 265l.5 7.5h-1zM5.5 269l.5 5.5H5zM506.5 269l.5 5.5h-1zM493.5 279l.5 3.5h-1zM18.5 280l.5 2.5h-1zM6.5 282l.5 3.5H6zM505.5 282l.5 2.5h-1zM183.5 287l-2 3zM19.5 288l.5 2.5h-1zM492.5 288l.5 2.5h-1zM7.5 290l.5 2.5H7zM504.5 290l.5 2.5h-1zM21.5 300l.5 2.5h-1zM195.5 301l122.5.5-122.5.5zM501.5 307l.5 2.5h-1zM468.5 336l-1 2zM466.5 339l.5 4.5h-1zM478 340l2 .5-2 1zM168.5 346l.5 1.5-2 1zM501.5 350l.5 3.5h-1zM468.5 352l.5 2.5h-1zM354.5 353l1 2zM155.5 355l-1 2zM500.5 355l-1 2zM358.5 356l3 4zM213.5 364l85.5.5-85.5.5zM177.5 365l2.5.5-2.5.5zM332.5 365l2.5.5-2.5.5zM471.5 366l1 2zM171.5 367l-3 4zM340.5 367l3 4zM186.5 368l1 2zM325.5 368l-1 2zM190.5 375l.5 5.5h-1zM321.5 375l.5 4.5h-1zM367.5 375l.5 12.5-1.5 1.5h-26l2-3v2H367zM144.5 376l.5 12 27 .5-26.5.5-1.5-1.5zM185.5 388l141.5.5-141.5.5zM60.5 393l1 2zM63.5 397l1 2zM50.5 400l1 2zM135.5 400l241.5.5-241.5.5zM66.5 401l1 2zM70.5 406l1 2zM55.5 407l1 2zM74.5 411l4 5zM59.5 412l1 2zM63.5 417l2 3zM428.5 421l-7 8zM70.5 425l15 16zM152.5 425l.5 12.5h-1zM183.5 425l.5 13.5h-1zM328.5 425l.5 13.5h-1zM359.5 425l.5 12.5h-1zM437.5 429l-11 12zM96.5 433l3 4zM413.5 435l-2 3zM103.5 439l2 3zM407.5 440l-2 3zM158.5 444l19.5.5-19.5.5zM334.5 444l19.5.5-19.5.5zM420.5 445l-2 3zM92.5 446l2 3zM113.5 447l1 2zM394.5 450l-1 2zM414.5 450l-2 3zM98.5 451l1 2zM102.5 454l1 2zM110.5 460l1 2zM401.5 460l-1 2zM113.5 462l1 2zM116.5 464l1 2zM300.5 490l2.5.5-2.5.5zM215.5 491l2.5.5-2.5.5zM221.5 492l2.5.5-2.5.5zM288.5 492l2.5.5-2.5.5zM229.5 493l3.5.5-3.5.5zM280.5 493l3.5.5-3.5.5zM240.5 494l5.5.5-5.5.5zM264.5 494l8.5.5-8.5.5zM302.5 502l2.5.5-2.5.5zM218.5 504l2.5.5-2.5.5zM290.5 504l2.5.5-2.5.5zM225.5 505l3.5.5-3.5.5zM282.5 505l3.5.5-3.5.5zM235.5 506l5.5.5-5.5.5zM270.5 506l5.5.5-5.5.5z" opacity=".408"/><path stroke="#000" d="m257.5 16 3.5.5-3.5.5zM397.5 28l-1 2zM393.5 31l-3 4zM387.5 37l-2 3zM411.5 40l-4 5zM444.5 49l4 5zM100.5 59l-1 2zM95.5 63l-1 2zM105.5 69l-1 2zM87.5 70l-4 5zM99.5 74l-2 3zM417.5 77l2 3zM406.5 84l1 2zM457.5 86l-1 4q-3.5-2 1-4ZM473.5 99l1 2zM387.5 103l-1 2zM480.5 106l2 3zM401.5 108l-1 2zM467.5 111l3 4zM393.5 116l-1 2zM368.5 117l.5 2-19-.5 17.5-.5zM129.5 118l32.5.5-32.5.5zM266.5 118l24.5.5-24.5.5zM302.5 118h23l1.5 1.5-.5 26.5-.5-27h-23.5zM473.5 118l1 2zM475.5 123l-3 4zM38.5 144l1 2zM13.5 155l-1 2zM5.5 251l.5 10.5H5zM506.5 251l.5 9.5h-1zM184.5 287l-3 4zM357.5 356l1 2zM360.5 359l1 2zM472.5 366l1 2zM170.5 367l-2 3zM341.5 367l2 3zM70.5 407l1 2zM75.5 413l3 4zM63.5 416l1 2zM70.5 424l3 4zM436.5 429l-11 12zM95.5 433l3 4zM414.5 435l-1 2zM83.5 437l3 4zM102.5 439l1 2zM181.5 441l-1 2zM330.5 441l1 2zM93.5 446l1 2zM418.5 446l-1 2zM99.5 451l1 2zM412.5 451l-1 2zM262.5 506l2.5.5-2.5.5z" opacity=".996"/><path stroke="#000" d="m249.5 5 29 1 1 1h8l27 5q32.4 8.1 58.5 22.5l-5 8.5-28.5-12-30-9-23-4-29-2-1 1h-22l-1 1-21 2-25 6-25 9-33 17q-26.1 15.9-46 38l-5 1-3.5-2.5-1-3L82.5 75q31.9-31.1 76-50 20.2-8.8 44-14l23-4 23-1zM430.5 17l13 1 13 4q14.9 6.6 24.5 18.5l11 20 3 19-1 1v9l-2 8-6 13.5-3-1.5-9.5-10.5L456 88.5q6.4-6.1 9-16v-14q-3.2-13.7-13.5-20.5l-12-5h-14q-12 3-18.5 11.5-7.7 8.3-7 25l4 12 6 7q-14.4 5.6-24 16l-5.5 7.5-8.5-19.5-1-20 4-16q5.4-12.6 14.5-21.5 9-9 22-14z"/><path stroke="#000" d="M252.5 38q8-1 12 2L359 92.5q2.7 15.1 9 25.5h-17.5l-.5.5V228H234v-68.5l.5-.5h9q4.2-1.3 3.5-7.5l-3.5-4.5-2-1h-63l-5.5 3.5q-.7 6.1 1 8.5 3.7 2.2 12 1v69h-24V118.5l-.5-.5h-35q-4.5-1-3.5-7.5l2.5-3.5zM251 66l-4 2q-7 4-9 14 0 7 3 12 4 5 11 7 10 2 15-3 6-4 7-12v-5l-3-7-9-8zm15 52v28h25v-28zm36 0v28h25v-26l-1-2zM427.5 46q8.3-1.2 13 1l9.5 8.5q3.3 4.7 2 14-2.1 7.4-7.5 11.5-5 4-14 4-10-2-14.5-9.5l-3-8v-5q1.9-9.1 8.5-13.5zM424.5 98h16l11 3q13.3 5.8 21.5 16.5l3 5Q461 142 425.5 141q-23.4-4.1-36.5-18.5l10.5-12.5q9.8-8.7 25-12ZM477.5 139q15.5 28 23.5 63.5l4 23v9l1 1v41l-1 1v9l-4 23-12 39 1.5-.5 6-2 3.5 2.5 1 5-18.5 12.5q-2.3 2.7-8 2l-3.5-3.5-4-25q1-4.5 7.5-3.5l4 7 2.5-3.5 5-15 7-31 1-15 1-1v-43l-1-1-2-21-6-25-17-43.5zM33.5 144q6.5-1 7.5 3.5l4 25q-1 4.5-7.5 3.5l-4-7-2.5 3.5-5 15-7 31-1 15-1 1v43l1 1 2 21 6 25q7.2 23.8 18 44 21.6 39.9 54.5 68.5 35.6 31.4 86 48l19 5 23 4h7l1 1h43l1-1 21-2 18-4 39-14q20.5-9.5 38-22 18.9-13.1 34-30l6-1 3.5 5.5-18.5 19.5q-32.3 28.2-76 45l-18 6-26 6h-5l-7 2h-9l-1 1-28 1-1-1-24-1-23-4q-28.2-6.8-52-18-43.9-21.1-75.5-54.5-34-35-53-85l-10-34-4-23v-9l-1-1v-42l1-1v-8l4-23Q15.7 181 23 163l-7.5 3-3.5-2.5-1-5 6.5-5.5z"/><path stroke="#000" d="M136.5 241h239l4.5 3.5q2.5 3.5 1 11l-2.5 3.5-2 1h-241l-3.5-2.5q-2.5-3.5-1-11l3.5-4.5zM190.5 285h132q7.4 1.1 10.5 6.5l11 55 2.5 3.5 13.5 8 6 10.5 1 19.5-25-.5q4.6-2.9 5-10l-1-5-4.5-5.5q-3.3-3.2-11-2-6.1 1.4-8.5 6.5l-1 10 4 6-137.5.5 2.5-3.5 1-11-6.5-7.5-9-1-7.5 4.5-3 8 1 5 4 5-25 .5q-2.6-23.3 10.5-32l13.5-7.5 10-52q1.5-6.5 6.5-9.5zm3.5 16-8 40 1 3h141l-8-41-1-2zm18 63 3 12q-1 4 1 4h81l3-14v-2zM135 401h241.5l.5.5V412H135.5l-.5-.5zM153 425h30v14.5l-5.5 4.5h-19l-4.5-3.5-1-2zM329 425h30v13.5l-3.5 4.5-2 1h-19l-4.5-3.5-1-2z"/></svg>