<?xml version="1.0" standalone="no"?>
<!DOCTYPE svg PUBLIC "-//W3C//DTD SVG 20010904//EN"
 "http://www.w3.org/TR/2001/REC-SVG-20010904/DTD/svg10.dtd">
<svg version="1.0" xmlns="http://www.w3.org/2000/svg"
 width="2000.000000pt" height="2000.000000pt" viewBox="0 0 2000.000000 2000.000000"
 preserveAspectRatio="xMidYMid meet">

<g transform="translate(0.000000,2000.000000) scale(0.100000,-0.100000)"
fill="#000000" stroke="none">
<path d="M14480 14134 c198 -67 337 -220 390 -430 24 -92 25 -146 5 -358 -8
-88 -28 -318 -45 -511 -17 -192 -44 -501 -60 -685 -16 -184 -68 -776 -115
-1315 -47 -539 -115 -1311 -150 -1715 -35 -404 -96 -1097 -135 -1540 -70 -806
-105 -1204 -160 -1830 -16 -184 -52 -596 -80 -915 -53 -612 -62 -671 -119
-783 -96 -189 -293 -349 -486 -396 l-60 -14 115 -1 c209 -1 361 53 517 185
101 86 194 236 228 368 9 36 106 1104 240 2635 124 1417 241 2754 260 2971
273 3093 326 3722 322 3800 -11 210 -135 401 -321 494 -102 51 -171 66 -306
66 l-115 -1 75 -25z"/>
<path d="M10815 14068 c-97 -36 -123 -86 -138 -262 -9 -119 -9 -134 8 -169 9
-20 32 -47 49 -60 29 -20 42 -22 188 -22 l156 0 39 31 c61 50 75 83 89 216 16
160 6 200 -58 245 -40 27 -46 28 -172 30 -77 1 -143 -2 -161 -9z m165 -173
c53 55 65 59 85 28 l18 -26 -46 -43 -45 -43 39 -44 38 -44 -25 -24 -25 -23
-41 41 -41 41 -49 -41 -49 -41 -22 22 -21 22 46 47 47 48 -40 43 -40 42 28 25
28 25 40 -46 40 -45 35 36z"/>
<path d="M6261 13861 c-10 -10 -23 -26 -28 -36 -9 -16 -12 -16 -40 -2 -27 14
-32 14 -51 1 -12 -8 -24 -30 -28 -49 -3 -19 -8 -35 -11 -35 -2 0 -17 10 -33
22 -39 29 -70 15 -99 -45 l-22 -45 -24 24 c-41 41 -73 29 -109 -41 -14 -27
-20 -30 -67 -30 -66 0 -77 -15 -63 -84 l10 -49 -29 -9 c-47 -13 -56 -37 -31
-83 l22 -39 -37 -8 c-49 -12 -53 -42 -11 -79 l30 -28 -25 -26 c-34 -35 -32
-66 5 -85 16 -8 36 -15 45 -15 19 0 19 -4 -1 -41 -8 -17 -14 -45 -12 -62 3
-32 3 -32 61 -32 53 0 58 -2 52 -20 -16 -58 -16 -72 1 -89 14 -14 27 -17 65
-12 l47 6 7 -46 c7 -47 33 -84 60 -84 9 0 32 7 52 15 20 8 37 14 38 13 27 -51
33 -185 12 -268 l-12 -45 -67 -11 c-37 -6 -74 -16 -82 -23 -17 -14 -21 -48 -8
-67 8 -14 673 -14 665 -1 -3 5 -5 30 -5 57 l1 48 -53 6 c-53 7 -54 8 -59 44
-5 34 5 129 14 135 2 1 25 13 52 26 26 13 65 44 88 68 58 64 82 122 87 220 4
73 7 83 26 89 47 14 48 25 6 70 -47 52 -64 88 -56 127 4 18 0 33 -12 46 -9 10
-27 37 -39 59 -17 33 -18 42 -7 42 8 0 14 7 14 15 0 8 -7 15 -17 15 -15 0 -15
1 0 18 21 23 22 50 1 73 -14 15 -13 19 10 42 14 15 26 33 26 41 0 19 -27 46
-46 46 -17 0 -17 4 -2 46 10 29 9 36 -6 53 -10 11 -28 21 -40 23 -16 2 -22 11
-24 35 -5 47 -24 58 -80 45 -43 -9 -49 -8 -75 14 -34 29 -61 30 -86 5z"/>
<path d="M12004 13865 c-69 -30 -84 -103 -32 -154 37 -36 60 -39 105 -11 36
22 56 74 44 117 -7 23 -13 28 -37 26 -24 -2 -26 -1 -9 6 19 8 18 10 -8 20 -16
6 -29 11 -30 10 -1 0 -16 -7 -33 -14z m101 -123 c-3 -3 -11 0 -18 7 -9 10 -8
11 6 5 10 -3 15 -9 12 -12z m-48 2 c-3 -3 -12 -4 -19 -1 -8 3 -5 6 6 6 11 1
17 -2 13 -5z m20 -30 c-3 -3 -12 -4 -19 -1 -8 3 -5 6 6 6 11 1 17 -2 13 -5z"/>
<path d="M5468 12270 c-133 -40 -227 -222 -287 -555 -36 -200 -36 -189 5 -209
33 -15 36 -20 31 -49 -3 -18 -17 -99 -32 -182 -19 -111 -24 -166 -19 -209 12
-111 55 -204 128 -279 34 -35 298 -217 315 -217 12 0 21 91 21 215 l0 110 -38
40 c-75 78 -78 102 -32 259 29 98 38 116 53 112 15 -4 17 5 17 77 0 168 -41
557 -80 775 -11 59 -20 110 -20 115 0 9 -27 8 -62 -3z"/>
<path d="M6853 12248 c-55 -61 -77 -156 -76 -338 1 -272 77 -503 217 -656 l44
-49 45 43 44 44 138 -141 c152 -155 207 -191 322 -213 74 -14 170 0 237 34 54
27 167 112 243 182 l61 56 668 0 669 0 -41 35 c-81 68 -149 171 -185 282 -19
57 -23 97 -27 256 l-4 187 -912 0 c-513 0 -926 -4 -946 -10 -19 -5 -44 -11
-55 -14 -16 -5 -30 7 -70 60 -73 98 -174 204 -224 236 -57 36 -118 38 -148 6z"/>
<path d="M9982 11800 c-97 -46 -200 -116 -273 -187 l-67 -64 -53 30 c-45 25
-182 71 -211 71 -5 0 -8 -15 -8 -33 0 -30 4 -35 63 -62 43 -20 85 -52 139
-106 l76 -76 47 73 c67 106 178 220 278 284 65 42 86 61 86 78 1 28 -1 28 -77
-8z"/>
<path d="M11765 11742 c-80 -39 -127 -116 -145 -239 -11 -84 2 -182 32 -231
43 -69 172 -96 257 -52 94 47 136 141 136 300 0 120 -18 170 -77 211 -45 32
-146 38 -203 11z"/>
<path d="M11594 11045 c-201 -36 -352 -132 -411 -261 -24 -53 -31 -102 -56
-376 l-6 -58 613 0 613 0 13 158 c21 257 8 324 -82 408 -73 69 -172 112 -308
134 -88 13 -289 11 -376 -5z"/>
<path d="M5605 10098 c-9 -27 -76 -365 -115 -584 -62 -350 -122 -788 -200
-1459 -102 -875 -129 -1046 -269 -1705 -98 -463 -325 -1406 -455 -1893 -23
-88 -30 -130 -22 -132 22 -8 450 -84 453 -81 2 2 33 86 68 187 427 1225 819
2442 935 2909 34 134 120 563 141 699 10 63 15 78 20 60 19 -63 41 -1249 57
-3103 l7 -779 85 2 c193 3 355 14 361 23 4 6 9 31 12 57 3 25 36 262 72 526
165 1199 270 2113 296 2576 21 370 -11 1302 -81 2361 -11 164 -20 309 -20 323
l0 25 -670 0 c-528 0 -672 -3 -675 -12z"/>
<path d="M12986 9368 c-35 -49 -11 -112 39 -106 25 2 32 10 42 41 18 53 3 87
-36 87 -20 0 -35 -8 -45 -22z"/>
<path d="M10800 9293 c-36 -13 -60 -47 -60 -83 0 -72 -10 -70 424 -70 229 0
395 4 405 10 10 5 24 23 31 40 16 38 0 82 -36 99 -26 11 -733 15 -764 4z"/>
<path d="M11820 9293 c-36 -13 -60 -47 -60 -83 0 -69 6 -70 278 -70 228 0 243
1 262 20 43 43 35 111 -16 130 -26 10 -437 13 -464 3z"/>
<path d="M12925 9206 c-45 -20 -63 -46 -71 -104 l-7 -52 151 0 150 0 4 43 c6
59 -8 93 -47 111 -40 19 -138 20 -180 2z"/>
<path d="M12918 8624 c-16 -8 -30 -26 -34 -42 -12 -55 -17 -67 -32 -78 -12 -9
-16 -31 -16 -90 l-1 -79 96 -3 c73 -2 99 1 108 12 19 22 26 142 10 162 -7 9
-14 34 -14 56 -2 67 -56 96 -117 62z m84 -21 c11 -10 18 -30 18 -55 l0 -38
-65 0 c-65 0 -65 0 -65 29 0 64 69 103 112 64z"/>
<path d="M10758 8564 c-4 -3 -2 -20 3 -37 10 -36 -7 -57 -48 -57 -14 0 -23 -6
-23 -15 0 -9 9 -15 23 -15 41 0 52 -14 38 -49 -20 -48 -8 -59 24 -23 l29 32
31 -30 c36 -35 47 -31 34 13 -13 45 -13 44 28 54 49 11 52 29 7 37 -31 6 -35
10 -29 29 22 72 13 88 -23 42 -25 -31 -30 -31 -62 0 -15 14 -29 23 -32 19z"/>
<path d="M11136 8562 c-3 -5 -1 -24 4 -41 8 -29 6 -33 -16 -41 -14 -6 -32 -10
-40 -10 -8 0 -14 -7 -14 -15 0 -9 9 -15 23 -15 38 0 49 -13 37 -44 -20 -53
-12 -62 23 -28 l33 32 24 -25 c33 -35 44 -31 36 14 -6 38 -5 39 31 48 48 11
52 29 8 37 -39 8 -40 9 -24 55 16 44 4 50 -31 16 l-30 -29 -29 28 c-16 15 -31
23 -35 18z"/>
<path d="M11519 8565 c-4 -3 -5 -24 -2 -45 5 -38 5 -39 -31 -45 -40 -8 -50
-35 -13 -35 42 0 50 -13 34 -53 -20 -48 -10 -54 29 -16 l31 30 21 -25 c30 -39
45 -34 37 14 -6 37 -5 40 22 45 47 11 55 14 49 24 -3 4 -19 11 -36 14 -32 7
-38 24 -19 59 19 35 -5 41 -36 8 l-29 -30 -25 31 c-14 17 -29 28 -32 24z"/>
<path d="M11897 8564 c-4 -4 -4 -24 -1 -44 6 -37 5 -38 -31 -46 -45 -11 -47
-27 -5 -35 42 -9 44 -12 25 -48 -24 -47 -8 -58 30 -21 l33 32 17 -26 c27 -41
47 -34 39 14 -6 37 -5 39 22 45 48 11 56 14 50 24 -3 5 -22 12 -41 15 -40 8
-40 7 -19 48 23 44 4 54 -31 18 l-30 -31 -25 31 c-14 17 -29 28 -33 24z"/>
<path d="M12274 8526 l7 -44 -38 -9 c-48 -11 -48 -25 -1 -36 l37 -9 -14 -35
c-21 -50 -8 -60 30 -23 l33 32 22 -31 c27 -39 43 -31 34 16 -7 39 4 53 44 53
36 0 26 27 -13 34 -19 4 -35 8 -35 10 0 2 7 19 15 39 19 47 8 54 -31 16 l-32
-31 -21 31 c-32 44 -45 40 -37 -13z"/>
<path d="M10814 7921 c-101 -46 -167 -145 -167 -251 0 -64 21 -116 67 -161 69
-68 20 -64 766 -64 l675 0 53 29 c95 53 142 133 142 241 0 73 -20 122 -67 167
-62 60 -41 58 -765 58 -627 0 -665 -1 -704 -19z"/>
<path d="M11375 7006 c-168 -33 -296 -108 -414 -241 -122 -137 -166 -247 -187
-470 -23 -230 -16 -211 -78 -229 -88 -26 -183 -126 -200 -211 -10 -49 -86
-941 -86 -1006 0 -101 46 -174 135 -215 l50 -24 700 0 700 0 60 28 c33 16 75
46 94 67 57 65 69 107 86 285 l15 162 39 47 c108 128 289 278 445 368 75 43
85 52 88 81 5 39 5 39 -142 -30 -121 -57 -223 -118 -332 -199 -70 -52 -78 -56
-78 -36 0 12 9 121 20 242 22 229 20 266 -10 325 -29 55 -110 120 -152 120
-37 1 -38 11 -23 180 16 173 10 274 -20 361 -65 183 -218 328 -405 383 -77 23
-220 29 -305 12z m207 -160 c149 -32 262 -120 326 -254 l37 -77 0 -140 c0 -77
-4 -175 -8 -217 l-9 -78 -504 0 -504 0 0 38 c0 64 20 255 31 307 47 206 250
394 458 424 82 12 99 12 173 -3z m-114 -1126 c52 -32 74 -75 69 -142 -3 -47
-9 -65 -39 -102 -34 -44 -36 -51 -42 -148 -14 -196 -22 -238 -52 -269 -48 -50
-115 -47 -150 6 -16 24 -16 40 -4 205 12 162 12 180 -3 195 -24 23 -41 88 -33
128 21 112 162 183 254 127z"/>
<path d="M8575 6826 c-7 -22 -24 -272 -21 -298 2 -16 -1 -28 -5 -28 -5 0 -9
-11 -9 -25 0 -25 0 -25 94 -25 l93 0 12 138 c6 75 14 163 17 195 l6 57 -92 -1
c-59 -1 -93 -5 -95 -13z"/>
<path d="M4526 4088 c-41 -149 -67 -218 -85 -218 -12 0 -32 -32 -69 -114 -29
-62 -52 -118 -52 -124 0 -21 33 -33 161 -57 74 -13 211 -43 304 -65 94 -22
186 -40 206 -40 40 0 74 23 84 57 7 24 8 23 -120 94 -52 28 -105 69 -152 116
l-71 72 44 138 c24 76 44 141 44 144 0 6 -242 59 -266 59 -6 0 -19 -28 -28
-62z"/>
<path d="M6286 4028 c-3 -13 -7 -78 -9 -145 -4 -87 -9 -127 -19 -137 -16 -16
-62 -222 -56 -251 3 -19 16 -20 444 -22 426 -3 442 -2 467 17 27 21 44 67 30
81 -5 5 -79 22 -164 39 -178 34 -244 55 -348 108 l-74 37 7 148 6 147 -140 0
c-137 0 -140 0 -144 -22z"/>
</g>
</svg>
